<?xml version="1.0" encoding="utf-8"?>
<svg contentScriptType="text/ecmascript" xmlns:xlink="http://www.w3.org/1999/xlink" zoomAndPan="magnify" contentStyleType="text/css" viewBox="9.8125 34.562000000000126 585.1875 504.1879999999999" xmlns:cacoo="http://cacoo.com/" preserveAspectRatio="xMidYMin meet" xmlns="http://www.w3.org/2000/svg" version="1.1"><defs><radialGradient xmlns:xlink="http://www.w3.org/1999/xlink" xlink:type="simple" r="75%" xlink:actuate="onLoad" cx="50%" id="id3" cy="50%" xlink:show="other"><stop stop-opacity="1.0" stop-color="#f50000" offset="0%"/><stop stop-opacity="1.0" stop-color="#d11010" offset="100%"/></radialGradient><linearGradient x1="0%" xmlns:xlink="http://www.w3.org/1999/xlink" y1="0%" x2="0%" y2="100%" xlink:type="simple" xlink:actuate="onLoad" id="id4" xlink:show="other"><stop stop-opacity="1.0" stop-color="#cccccc" offset="0%"/><stop stop-opacity="1.0" stop-color="#ffffff" offset="100%"/></linearGradient><radialGradient xmlns:xlink="http://www.w3.org/1999/xlink" xlink:type="simple" r="75%" xlink:actuate="onLoad" cx="50%" id="id5" cy="50%" xlink:show="other"><stop stop-opacity="1.0" stop-color="#fffff0" offset="0%"/><stop stop-opacity="1.0" stop-color="#ffd0a2" offset="100%"/></radialGradient><radialGradient xmlns:xlink="http://www.w3.org/1999/xlink" xlink:type="simple" r="75%" xlink:actuate="onLoad" cx="50%" id="id6" cy="50%" xlink:show="other"><stop stop-opacity="1.0" stop-color="#fffff0" offset="0%"/><stop stop-opacity="1.0" stop-color="#ffd0a2" offset="100%"/></radialGradient><radialGradient xmlns:xlink="http://www.w3.org/1999/xlink" xlink:type="simple" r="75%" xlink:actuate="onLoad" cx="50%" id="id7" cy="50%" xlink:show="other"><stop stop-opacity="1.0" stop-color="#fffff0" offset="0%"/><stop stop-opacity="1.0" stop-color="#ffd0a2" offset="100%"/></radialGradient><radialGradient xmlns:xlink="http://www.w3.org/1999/xlink" xlink:type="simple" r="75%" xlink:actuate="onLoad" cx="50%" id="id8" cy="50%" xlink:show="other"><stop stop-opacity="1.0" stop-color="#eda842" offset="0%"/><stop stop-opacity="1.0" stop-color="#cc6600" offset="100%"/></radialGradient><radialGradient xmlns:xlink="http://www.w3.org/1999/xlink" xlink:type="simple" r="75%" xlink:actuate="onLoad" cx="50%" id="id9" cy="50%" xlink:show="other"><stop stop-opacity="1.0" stop-color="#e6e6e6" offset="0%"/><stop stop-opacity="1.0" stop-color="#aaaaaa" offset="100%"/></radialGradient><linearGradient xlink:actuate="onLoad" xlink:type="simple" id="id10" xlink:show="other" xmlns:xlink="http://www.w3.org/1999/xlink"><stop stop-opacity="1.0" stop-color="#a45a0b" offset="0%"/><stop stop-opacity="1.0" stop-color="#6b3721" offset="100%"/></linearGradient><radialGradient xmlns:xlink="http://www.w3.org/1999/xlink" xlink:type="simple" r="75%" xlink:actuate="onLoad" cx="50%" id="id11" cy="50%" xlink:show="other"><stop stop-opacity="1.0" stop-color="#a45a0b" offset="0%"/><stop stop-opacity="1.0" stop-color="#6b3721" offset="100%"/></radialGradient><radialGradient xmlns:xlink="http://www.w3.org/1999/xlink" xlink:type="simple" r="75%" xlink:actuate="onLoad" cx="50%" id="id12" cy="50%" xlink:show="other"><stop stop-opacity="1.0" stop-color="#a45a0b" offset="0%"/><stop stop-opacity="1.0" stop-color="#6b3721" offset="100%"/></radialGradient><radialGradient xmlns:xlink="http://www.w3.org/1999/xlink" xlink:type="simple" r="75%" xlink:actuate="onLoad" cx="50%" id="id13" cy="50%" xlink:show="other"><stop stop-opacity="1.0" stop-color="#a45a0b" offset="0%"/><stop stop-opacity="1.0" stop-color="#6b3721" offset="100%"/></radialGradient><radialGradient xmlns:xlink="http://www.w3.org/1999/xlink" xlink:type="simple" r="75%" xlink:actuate="onLoad" cx="50%" id="id14" cy="50%" xlink:show="other"><stop stop-opacity="1.0" stop-color="#5c5c5c" offset="0%"/><stop stop-opacity="1.0" stop-color="#333333" offset="100%"/></radialGradient><marker refX="0.0" refY="7.0" markerUnits="userSpaceOnUse" orient="auto" id="id19" markerHeight="14.0" viewBox="0 0 14.0 14.0" preserveAspectRatio="xMidYMid meet" markerWidth="14.0" overflow="visible"><path fill="#51b11d" d="M7.0 3.5 L0 7.0 L7.0 10.5z" stroke-width="2.0" stroke-linejoin="round" stroke-linecap="round" stroke="#51b11d"/></marker><marker refX="14.0" refY="7.0" markerUnits="userSpaceOnUse" orient="auto" id="id20" markerHeight="14.0" viewBox="0 0 14.0 14.0" preserveAspectRatio="xMidYMid meet" markerWidth="14.0" overflow="visible"><path fill="#51b11d" d="M7.0 3.5 L14.0 7.0 L7.0 10.5z" stroke-width="2.0" stroke-linejoin="round" stroke-linecap="round" stroke="#51b11d"/></marker><radialGradient xmlns:xlink="http://www.w3.org/1999/xlink" xlink:type="simple" r="75%" xlink:actuate="onLoad" cx="50%" id="id30" cy="50%" xlink:show="other"><stop stop-opacity="1.0" stop-color="#c46293" offset="0%"/><stop stop-opacity="1.0" stop-color="#9d4f77" offset="100%"/></radialGradient><radialGradient xmlns:xlink="http://www.w3.org/1999/xlink" xlink:type="simple" r="75%" xlink:actuate="onLoad" cx="50%" id="id31" cy="50%" xlink:show="other"><stop stop-opacity="1.0" stop-color="#ffe3c2" offset="0%"/><stop stop-opacity="1.0" stop-color="#fabf73" offset="100%"/></radialGradient><radialGradient xmlns:xlink="http://www.w3.org/1999/xlink" xlink:type="simple" r="75%" xlink:actuate="onLoad" cx="50%" id="id32" cy="50%" xlink:show="other"><stop stop-opacity="1.0" stop-color="#ffe3c2" offset="0%"/><stop stop-opacity="1.0" stop-color="#fabf73" offset="100%"/></radialGradient><radialGradient xmlns:xlink="http://www.w3.org/1999/xlink" xlink:type="simple" r="75%" xlink:actuate="onLoad" cx="50%" id="id33" cy="50%" xlink:show="other"><stop stop-opacity="1.0" stop-color="#ffe3c2" offset="0%"/><stop stop-opacity="1.0" stop-color="#fabf73" offset="100%"/></radialGradient><radialGradient xmlns:xlink="http://www.w3.org/1999/xlink" xlink:type="simple" r="75%" xlink:actuate="onLoad" cx="50%" id="id34" cy="50%" xlink:show="other"><stop stop-opacity="1.0" stop-color="#5c5c5c" offset="0%"/><stop stop-opacity="1.0" stop-color="#333333" offset="100%"/></radialGradient><marker refX="0.0" refY="7.0" markerUnits="userSpaceOnUse" orient="auto" id="id36" markerHeight="14.0" viewBox="0 0 14.0 14.0" preserveAspectRatio="xMidYMid meet" markerWidth="14.0" overflow="visible"><path fill="#51b11d" d="M7.0 3.5 L0 7.0 L7.0 10.5z" stroke-width="2.0" stroke-linejoin="round" stroke-linecap="round" stroke="#51b11d"/></marker><marker refX="14.0" refY="7.0" markerUnits="userSpaceOnUse" orient="auto" id="id37" markerHeight="14.0" viewBox="0 0 14.0 14.0" preserveAspectRatio="xMidYMid meet" markerWidth="14.0" overflow="visible"><path fill="#51b11d" d="M7.0 3.5 L14.0 7.0 L7.0 10.5z" stroke-width="2.0" stroke-linejoin="round" stroke-linecap="round" stroke="#51b11d"/></marker><marker refX="0.0" refY="7.0" markerUnits="userSpaceOnUse" orient="auto" id="id38" markerHeight="14.0" viewBox="0 0 14.0 14.0" preserveAspectRatio="xMidYMid meet" markerWidth="14.0" overflow="visible"><path fill="#51b11d" d="M7.0 3.5 L0 7.0 L7.0 10.5z" stroke-width="2.0" stroke-linejoin="round" stroke-linecap="round" stroke="#51b11d"/></marker><marker refX="14.0" refY="7.0" markerUnits="userSpaceOnUse" orient="auto" id="id39" markerHeight="14.0" viewBox="0 0 14.0 14.0" preserveAspectRatio="xMidYMid meet" markerWidth="14.0" overflow="visible"><path fill="#51b11d" d="M7.0 3.5 L14.0 7.0 L7.0 10.5z" stroke-width="2.0" stroke-linejoin="round" stroke-linecap="round" stroke="#51b11d"/></marker></defs><g><path fill="none" d="M182.93749999999997 251.0010000000001 L307.25 329.5" stroke-width="2.0" stroke-linejoin="round" stroke="#286bcc"/><path fill="none" d="M307.3125 248.69400000000007 L307.25 329.5" stroke-width="2.0" stroke-linejoin="round" stroke="#286bcc"/><path fill="none" d="M428.25 245.0010000000001 L307.25 329.5" stroke-width="2.0" stroke-linejoin="round" stroke="#286bcc"/><g transform="translate(132.4375 150.00100000000012)"><path fill="#ffffff" fill-opacity="1.0" d="M100.99999999999996 50.49999999999998 Q100.99999999999996 71.41678286000001 86.20955999999991 86.20804500000003 Q71.41841299999997 100.99999999999996 50.49999999999998 100.99999999999996 Q29.582394999999995 100.99999999999996 14.791200125999998 86.20880047999998 Q0.0 71.41760500000002 0.0 50.49999999999998 Q0.0 29.582394999999995 14.791198106000001 14.791200125999998 Q29.582394999999995 0.0 50.49999999999998 0.0 Q71.41877053999993 0.0 86.20955999999991 14.791198106000001 Q100.99999999999996 29.582047559999996 100.99999999999996 50.49999999999998 L100.99999999999996 50.49999999999998z" stroke-width="2.0" stroke-linejoin="round" stroke="#286bcc"/><g transform="translate(10.9824398612976 16.081220893859864)"><clipPath id="id0"><path d="M0 0 L77.04319969177251 0 L77.04319969177251 68.37295913696282 L0 68.37295913696282z"/></clipPath><text font-size="14" clip-path="url(#id0)" text-decoration="none" fill="#286bcc" font-family="&apos;冬青黑體簡體中文 W3&apos;" font-style="normal" font-weight="bold"><tspan x="3.0" xml:space="preserve" y="39.18647956848141" textLength="71.0">页面模块 A</tspan></text></g></g><g transform="translate(256.8125 147.69400000000013)"><path fill="#ffffff" fill-opacity="1.0" d="M100.99999999999996 50.49999999999998 Q100.99999999999996 71.41678286000001 86.20955999999991 86.20804500000003 Q71.41841299999997 100.99999999999996 50.49999999999998 100.99999999999996 Q29.582394999999995 100.99999999999996 14.791200125999998 86.20880047999998 Q0.0 71.41760500000002 0.0 50.49999999999998 Q0.0 29.582394999999995 14.791198106000001 14.791200125999998 Q29.582394999999995 0.0 50.49999999999998 0.0 Q71.41877053999993 0.0 86.20955999999991 14.791198106000001 Q100.99999999999996 29.582047559999996 100.99999999999996 50.49999999999998 L100.99999999999996 50.49999999999998z" stroke-width="2.0" stroke-linejoin="round" stroke="#286bcc"/><g transform="translate(10.9824398612976 16.081220893859864)"><clipPath id="id1"><path d="M0 0 L77.04319969177251 0 L77.04319969177251 68.37295913696282 L0 68.37295913696282z"/></clipPath><text font-size="14" clip-path="url(#id1)" text-decoration="none" fill="#286bcc" font-family="&apos;冬青黑體簡體中文 W3&apos;" font-style="normal" font-weight="bold"><tspan x="3.0" xml:space="preserve" y="39.18647956848141" textLength="71.0">页面模块 B</tspan></text></g></g><g transform="translate(377.75 144.00100000000012)"><path fill="#ffffff" fill-opacity="1.0" d="M100.99999999999996 50.49999999999998 Q100.99999999999996 71.41678286000001 86.20955999999991 86.20804500000003 Q71.41841299999997 100.99999999999996 50.49999999999998 100.99999999999996 Q29.582394999999995 100.99999999999996 14.791200125999998 86.20880047999998 Q0.0 71.41760500000002 0.0 50.49999999999998 Q0.0 29.582394999999995 14.791198106000001 14.791200125999998 Q29.582394999999995 0.0 50.49999999999998 0.0 Q71.41877053999993 0.0 86.20955999999991 14.791198106000001 Q100.99999999999996 29.582047559999996 100.99999999999996 50.49999999999998 L100.99999999999996 50.49999999999998z" stroke-width="2.0" stroke-linejoin="round" stroke="#286bcc"/><g transform="translate(10.9824398612976 16.081220893859864)"><clipPath id="id2"><path d="M0 0 L77.04319969177251 0 L77.04319969177251 68.37295913696282 L0 68.37295913696282z"/></clipPath><text font-size="14" clip-path="url(#id2)" text-decoration="none" fill="#286bcc" font-family="&apos;冬青黑體簡體中文 W3&apos;" font-style="normal" font-weight="bold"><tspan x="3.0" xml:space="preserve" y="39.18647956848141" textLength="71.0">页面模块 C</tspan></text></g></g><g transform="translate(163.4375 124.00000000000011)"><path fill="url(#id3)" d="M6.07 46.311001000000005 Q6.07 40.617599999999996 10.1137503 36.593876 Q14.157652 32.57 19.880001 32.57 Q25.603308000000002 32.57 29.651251000000002 36.593876 Q33.700001 40.618553 33.700001 46.311001000000005 Q33.700001 48.998772 29.382813 50.579814999999996 Q25.497345 52.00275 19.885002 52.00275 Q14.272658 52.00275 10.387188 50.579814999999996 Q6.070001430511501 48.998772 6.070001430511501 46.311001000000005 L6.07 46.311001000000005z" stroke-width="1.0" stroke-linejoin="round" stroke="#990000"/><path fill="url(#id4)" d="M12.0 34.99999975 Q12.117500305 35.5543744 12.39328098 36.4309385 Q12.94484425 38.1840627 13.7362499 39.794998 Q14.8442183 42.050312 16.273594 43.699062 Q18.0603104 45.759998 20.25 46.75 Q20.578125 46.515625 21.097656 46.03125 Q22.136719 45.0625 23.09375 43.8125 Q24.433594 42.0625 25.417969 39.9999998 Q26.6484375 37.4218748 27.25 34.49999975 Q25.7890625 34.07031225 23.074219 34.050781 Q20.902344 34.035156 18.03125 34.28124975 Q15.9804688 34.457031 13.7851562 34.7460935 Q12.6875 34.89062475 12.0 34.99999975 L12.0 34.99999975z" stroke-width="1.0" stroke-linejoin="round" stroke="#990000"/><path fill="url(#id5)" d="M0.0 24.0 Q0.0 20.0 4.0 20.0 Q8.0 20.0 8.0 24.0 Q8.0 28.0 4.0 28.0 Q0.0 28.0 0.0 24.0 L0.0 24.0z" stroke-width="1.0" stroke-linejoin="round" stroke="#ffd0a2"/><path fill="url(#id6)" d="M31.0 24.0 Q31.0 20.0 35.0 20.0 Q39.0 20.0 39.0 24.0 Q39.0 28.0 35.0 28.0 Q31.0 28.0 31.0 24.0 L31.0 24.0z" stroke-width="1.0" stroke-linejoin="round" stroke="#ffd0a2"/><path fill="url(#id7)" d="M4.0 21.690001600000002 Q4.0 15.2541446 8.495000000000001 10.702501300000002 Q12.990848 6.1500006 19.35 6.1500006 Q25.709154 6.1500006 30.205002 10.7024996 Q34.7 15.2541406 34.7 21.690001600000002 Q34.7 28.125857600000003 30.204998 32.6774966 Q25.709152 37.2299986 19.35 37.2299986 Q12.9908495 37.2299986 8.495001 32.6774966 Q4.0 28.125857600000003 4.0 21.690001600000002 L4.0 21.690001600000002z" stroke-width="1.0" stroke-linejoin="round" stroke="#ffd0a2"/><path fill="#ffc28d" fill-opacity="1.0" d="M9.278999953674301 31.55 Q9.278999953674301 32.5372894 12.37275 34.425 Q15.855388300000001 36.55 19.028999 36.55 Q23.091499 36.55 25.966499 34.8 Q27.403999 33.925 28.028999 33.05 Q27.763374 33.175 27.286811 33.3585938 Q26.333686999999998 33.7257812 25.278999 34.01875 Q21.903999 34.95625 18.778999 34.8 Q14.528976 34.5894592 9.278999 31.55 L9.278999953674301 31.55z" stroke="none"/><path fill="#ee0000" fill-opacity="1.0" d="M30.0 40.0 Q30.5625 41.0625 31.09375 42.34375 Q32.15625 44.90625 32.0 46.0 Q31.77404 47.58173 29.25 48.84375 Q26.256466 50.340514999999996 22.0 50.0 Q23.082500500000002 49.834998999999996 24.4987507 49.377499 Q27.331249 48.462502 29.0 47.0 Q30.25 45.90625 30.25 42.84375 Q30.25 41.8867188 30.125 40.84765625 Q30.0625 40.328125 30.0 40.0 L30.0 40.0z" stroke="none"/><path fill="url(#id8)" d="M4.77 15.98 Q4.1338196 17.935091 4.0900002 19.98 Q4.4866667 19.317 5.0662503 18.27375 Q5.7492857 17.044285 5.96 16.68 Q10.029973 19.3865 12.62125 15.924999 Q13.453653 14.813054 14.109844 13.1075 Q14.305604 12.598686 14.518808 11.9425 Q14.718999 11.326368 14.75 11.25 Q15.25 11.875 16.0625 12.5 Q17.6875 13.75 19.25 13.75 Q21.70388 13.75 23.0275 12.4725 Q23.98843 11.545053 24.0 10.55 Q30.38075 12.269015 34.681 20.95 Q34.738716 18.522972 34.0 16.25 Q37.0 16.25 37.0 11.5 Q37.0 7.0 32.5 7.0 Q32.238499000000004 7.0 31.970001 7.03 Q31.559868 3.0 27.5 3.0 Q25.975517 3.0 24.77 3.92 Q23.595726 0.0 19.5 0.0 Q15.404273 0.0 14.23 3.92 Q13.024484 3.0 11.5 3.0 Q7.440133 3.0 7.03 7.03 Q6.7599974 7.0 6.5 7.0 Q2.0 7.0 2.0 11.5 Q2.0 15.650238 4.77 15.98 L4.77 15.98z" stroke-width="1.0" stroke-linejoin="round" stroke="#cc9933"/></g><g transform="translate(408.25 126.36900000000011)"><path fill="url(#id9)" d="M7.07 42.689998 Q7.07 36.996596999999994 11.1137503 32.972873 Q15.157652 28.948997 20.880001 28.948997 Q26.603129 28.948997 30.651253 32.973247 Q34.700001 36.998119 34.700001 42.689998 Q34.700001 45.377769 30.382813 46.958811999999995 Q26.497345 48.381747 20.885002 48.381747 Q15.272658 48.381747 11.387188 46.958811999999995 Q7.070001430511501 45.377769 7.070001430511501 42.689998 L7.07 42.689998z" stroke-width="1.0" stroke-linejoin="round" stroke="#999999"/><path fill="url(#id10)" d="M13.0 29.379999660000003 Q13.117500305 29.934374400000003 13.39328098 30.8109365 Q13.94484425 32.5640645 14.7362499 34.1749997 Q15.8442192 36.430314 17.273594 38.079064 Q19.0603104 40.14 21.25 41.129998 Q21.578125 40.895623 22.097656 40.411248 Q23.136719 39.442498 24.09375 38.192498 Q25.433594 36.442498 26.417969 34.3799978 Q27.6484375 31.8018728 28.25 28.87999775 Q26.7890625 28.45031025 24.074219 28.430779 Q21.902344 28.415154 19.03125 28.66124775 Q16.9804688 28.837029 14.7851562 29.1260915 Q13.6875 29.27062275 13.0 29.37999775 L13.0 29.379999660000003z" stroke-width="1.0" stroke-linejoin="round" stroke="#633224"/><path fill="url(#id11)" d="M0.0 20.379998999999998 Q0.0 15.379999 5.0 15.379999 Q10.0 15.379999 10.0 20.379998999999998 Q10.0 25.379998999999998 5.0 25.379998999999998 Q0.0 25.379998999999998 0.0 20.379998999999998 L0.0 20.379998999999998z" stroke-width="1.0" stroke-linejoin="round" stroke="#633224"/><path fill="url(#id12)" d="M30.0 20.379998999999998 Q30.0 15.379999 35.0 15.379999 Q40.0 15.379999 40.0 20.379998999999998 Q40.0 25.379998999999998 35.0 25.379998999999998 Q30.0 25.379998999999998 30.0 20.379998999999998 L30.0 20.379998999999998z" stroke-width="1.0" stroke-linejoin="round" stroke="#633224"/><path fill="url(#id13)" d="M5.0 18.0700007 Q5.0 11.6341437 9.495000000000001 7.082500400000001 Q13.990848 2.5299997 20.35 2.5299997 Q26.709154 2.5299997 31.204998 7.0824997 Q35.7 11.6341447 35.7 18.0700007 Q35.7 24.505852700000002 31.204998 29.0575037 Q26.709156 33.6100017 20.35 33.6100017 Q13.990846 33.6100017 9.495001 29.0575037 Q5.0 24.505856700000002 5.0 18.0700007 L5.0 18.0700007z" stroke-width="1.0" stroke-linejoin="round" stroke="#633224"/><path fill="#633224" fill-opacity="1.0" d="M10.122 27.138 Q10.122 28.125287500000002 13.21575 30.013 Q16.6983893 32.138000000000005 19.872 32.138000000000005 Q23.9345 32.138000000000005 26.8095 30.388 Q28.247 29.513 28.872 28.638 Q28.606375 28.763 28.129812 28.946593800000002 Q27.176688 29.3137812 26.122 29.60675 Q22.747 30.54425 19.622 30.388 Q15.374445 30.178889700000003 10.122 27.138 L10.122 27.138z" stroke="none"/><path fill="#e6e6e6" fill-opacity="1.0" d="M31.0 36.38 Q31.5625 37.4425 32.09375 38.72375 Q33.15625 41.28625 33.0 42.38 Q32.77404 43.96173 30.25 45.22375 Q27.256466 46.720519 23.0 46.38 Q24.082500500000002 46.214999000000006 25.4987507 45.757499 Q28.331249 44.842502 30.0 43.38 Q31.25 42.28625 31.25 39.22375 Q31.25 38.2667188 31.125 37.22765625 Q31.0625 36.708125 31.0 36.38 L31.0 36.38z" stroke="none"/><path fill="url(#id14)" d="M20.35 0.0 Q14.321996 0.0 9.813749999999999 4.13875 Q5.20823845 8.366794 5.09 14.36 Q6.3744253 12.505311 7.284062199999999 11.4106245 Q8.7944725 9.592948 10.4174994 8.315001 Q14.780039 4.88 20.5 4.88 Q27.365692 4.88 30.647625 7.5925007 Q32.105605999999995 8.797515 33.373234 10.870625 Q34.225708 12.264784 35.681 15.33 Q35.828617 9.06195 31.176374 4.49625 Q26.594896 0.0 20.35 0.0 L20.35 0.0z" stroke-width="1.0" stroke-linejoin="round" stroke="#000000"/></g><g transform="translate(158.0 329.5)"><path fill="#ffffff" fill-opacity="1.0" d="M298.50000000000006 89.12500000000004 Q298.50000000000006 94.12500000000004 293.50000000000006 94.12500000000004 L5.0 94.12500000000004 Q0.0 94.12500000000004 0.0 89.12500000000004 L0.0 5.0 Q0.0 0.0 5.0 0.0 L293.50000000000006 0.0 Q298.50000000000006 0.0 298.50000000000006 5.0 L298.50000000000006 89.12500000000004 L298.50000000000006 89.12500000000004z" stroke-width="3.0" stroke-linejoin="round" stroke="#51b11d"/><g transform="translate(1.0 1.0)"><clipPath id="id15"><path d="M0 0 L296.5 0 L296.5 92.125 L0 92.125z"/></clipPath><text font-size="14" clip-path="url(#id15)" text-decoration="none" fill="#000000" font-family="Arial,Arial" font-style="normal" font-weight="normal"/></g></g><g transform="translate(237.875 343.0)"><clipPath id="id16"><path d="M0 0 L138.75 0 L138.75 21.0 L0 21.0z"/></clipPath><text font-size="18" clip-path="url(#id16)" text-decoration="none" fill="#51b11d" font-family="&apos;冬青黑體簡體中文 W3&apos;" font-style="normal" font-weight="bold"><tspan x="5.0" xml:space="preserve" y="18.0" textLength="128.0">页面的 Loader</tspan></text><text font-size="18" clip-path="url(#id16)" text-decoration="none" fill="#51b11d" font-family="&apos;冬青黑體簡體中文 W3&apos;" font-style="normal" font-weight="normal"/></g><g transform="translate(233.0 397.0)"><clipPath id="id17"><path d="M0 0 L48.0 0 L48.0 7.0 L0 7.0z"/></clipPath><text font-size="10" clip-path="url(#id17)" text-decoration="none" fill="#000000" font-family="Arial,Arial" font-style="normal" font-weight="normal"/></g><g transform="translate(162.40625 369.5)"><clipPath id="id18"><path d="M0 0 L289.6875 0 L289.6875 54.125 L0 54.125z"/></clipPath><text font-size="16" clip-path="url(#id18)" text-decoration="none" fill="#666666" font-family="Arial,Arial" font-style="normal" font-weight="bold"><tspan x="44.0" xml:space="preserve" y="16.0" textLength="68.0">指定载入 </tspan></text><text font-size="16" clip-path="url(#id18)" text-decoration="none" fill="#286bcc" font-family="Arial,Arial" font-style="normal" font-weight="bold"><tspan x="112.0" xml:space="preserve" y="16.0" textLength="134.0">A、B、C 页面模块</tspan></text><text font-size="16" clip-path="url(#id18)" text-decoration="none" fill="#666666" font-family="Arial,Arial" font-style="normal" font-weight="bold"/><text font-size="16" clip-path="url(#id18)" text-decoration="none" fill="#666666" font-family="Arial,Arial" font-style="normal" font-weight="bold"><tspan x="3.0" xml:space="preserve" y="38.0" textLength="100.0">自动算出还有 </tspan></text><text font-size="16" clip-path="url(#id18)" text-decoration="none" fill="#ed4580" font-family="Arial,Arial" font-style="normal" font-weight="bold"><tspan x="103.0" xml:space="preserve" y="38.0" textLength="184.0">a、b、c、d、e、f 需载入</tspan></text><text font-size="16" clip-path="url(#id18)" text-decoration="none" fill="#666666" font-family="Arial,Arial" font-style="normal" font-weight="bold"/></g><path fill="none" stroke-linejoin="round" d="M307.25 423.62500000000006 L307.25 474.75" stroke="#51b11d" marker-start="url(#id19)" stroke-width="2.0" marker-end="url(#id20)"/><g transform="translate(242.25 474.75)"><path fill="#ff8410" fill-opacity="1.0" d="M130.0 44.0 Q130.0 49.0 125.0 49.0 L5.0 49.0 Q0.0 49.0 0.0 44.0 L0.0 5.0 Q0.0 0.0 5.0 0.0 L125.0 0.0 Q130.0 0.0 130.0 5.0 L130.0 44.0 L130.0 44.0z" stroke="none"/><g transform="translate(1.0 1.0)"><clipPath id="id21"><path d="M0 0 L128.0 0 L128.0 47.0 L0 47.0z"/></clipPath><text font-size="16" clip-path="url(#id21)" text-decoration="none" fill="#ffffff" font-family="&apos;冬青黑體簡體中文 W3&apos;" font-style="normal" font-weight="bold"><tspan x="24.0" xml:space="preserve" y="29.5" textLength="80.0">静态伺服器</tspan></text><text font-size="16" clip-path="url(#id21)" text-decoration="none" fill="#ffffff" font-family="&apos;冬青黑體簡體中文 W3&apos;" font-style="normal" font-weight="normal"/></g></g><g transform="translate(382.25 481.5)"><clipPath id="id22"><path d="M0 0 L160.0 0 L160.0 41.5 L0 41.5z"/></clipPath><text font-size="16" clip-path="url(#id22)" text-decoration="none" fill="#ff8410" font-family="&apos;冬青黑體簡體中文 W3&apos;" font-style="normal" font-weight="bold"><tspan x="2.0" xml:space="preserve" y="16.0" textLength="96.0">动态合并档案</tspan></text><text font-size="16" clip-path="url(#id22)" text-decoration="none" fill="#ff8410" font-family="&apos;冬青黑體簡體中文 W3&apos;" font-style="normal" font-weight="normal"/><text font-size="16" clip-path="url(#id22)" text-decoration="none" fill="#ff8410" font-family="&apos;冬青黑體簡體中文 W3&apos;" font-style="normal" font-weight="bold"><tspan x="2.0" xml:space="preserve" y="35.0" textLength="128.0">不需要预先 Build</tspan></text><text font-size="16" clip-path="url(#id22)" text-decoration="none" fill="#ff8410" font-family="&apos;冬青黑體簡體中文 W3&apos;" font-style="normal" font-weight="normal"/></g><g transform="translate(24.8125 136.69400000000007)"><path fill="#ffffff" fill-opacity="1.0" d="M61.49999999999995 30.749999999999975 Q61.49999999999995 43.48645689000001 52.493939999999895 52.49301749999997 Q43.48744949999998 61.49999999999995 30.749999999999975 61.49999999999995 Q18.013042499999994 61.49999999999995 9.006522848999998 52.493477519999985 Q0.0 43.486957500000024 0.0 30.749999999999975 Q0.0 18.013042499999994 9.006521619 9.006522848999998 Q18.013042499999994 0.0 30.749999999999975 0.0 Q43.48766720999991 0.0 52.493939999999895 9.006521619 Q61.49999999999995 18.01283093999998 61.49999999999995 30.749999999999975 L61.49999999999995 30.749999999999975z" stroke-width="2.0" stroke-linejoin="round" stroke="#ed4580"/><g transform="translate(6.687327242275264 9.792030544281006)"><clipPath id="id23"><path d="M0 0 L46.91244337667339 0 L46.91244337667339 41.63303947448721 L0 41.63303947448721z"/></clipPath><text font-size="14" clip-path="url(#id23)" text-decoration="none" fill="#ed4580" font-family="&apos;冬青黑體簡體中文 W3&apos;" font-style="normal" font-weight="bold"><tspan x="3.0" xml:space="preserve" y="25.816519737243606" textLength="41.0">模块 a</tspan></text></g></g><path fill="none" d="M132.4375 200.5010000000001 L77.30603352148627 189.18753352148633" stroke-width="2.0" stroke-linejoin="round" stroke="#ed4580"/><g transform="translate(24.8125 207.7520000000001)"><path fill="#ffffff" fill-opacity="1.0" d="M61.49999999999995 30.749999999999975 Q61.49999999999995 43.48645689000001 52.493939999999895 52.49301749999997 Q43.48744949999998 61.49999999999995 30.749999999999975 61.49999999999995 Q18.013042499999994 61.49999999999995 9.006522848999998 52.493477519999985 Q0.0 43.486957500000024 0.0 30.749999999999975 Q0.0 18.013042499999994 9.006521619 9.006522848999998 Q18.013042499999994 0.0 30.749999999999975 0.0 Q43.48766720999991 0.0 52.493939999999895 9.006521619 Q61.49999999999995 18.01283093999998 61.49999999999995 30.749999999999975 L61.49999999999995 30.749999999999975z" stroke-width="2.0" stroke-linejoin="round" stroke="#ed4580"/><g transform="translate(6.687327242275264 9.792030544281006)"><clipPath id="id24"><path d="M0 0 L46.91244337667339 0 L46.91244337667339 41.63303947448721 L0 41.63303947448721z"/></clipPath><text font-size="14" clip-path="url(#id24)" text-decoration="none" fill="#ed4580" font-family="&apos;冬青黑體簡體中文 W3&apos;" font-style="normal" font-weight="bold"><tspan x="2.0" xml:space="preserve" y="25.816519737243606" textLength="42.0">模块 b</tspan></text></g></g><path fill="none" d="M132.4375 200.5010000000001 L86.31249999999994 238.50200000000007" stroke-width="2.0" stroke-linejoin="round" stroke="#ed4580"/><g transform="translate(72.8125 258.25)"><path fill="#ffffff" fill-opacity="1.0" d="M61.49999999999995 30.749999999999975 Q61.49999999999995 43.48645689000001 52.493939999999895 52.49301749999997 Q43.48744949999998 61.49999999999995 30.749999999999975 61.49999999999995 Q18.013042499999994 61.49999999999995 9.006522848999998 52.493477519999985 Q0.0 43.486957500000024 0.0 30.749999999999975 Q0.0 18.013042499999994 9.006521619 9.006522848999998 Q18.013042499999994 0.0 30.749999999999975 0.0 Q43.48766720999991 0.0 52.493939999999895 9.006521619 Q61.49999999999995 18.01283093999998 61.49999999999995 30.749999999999975 L61.49999999999995 30.749999999999975z" stroke-width="2.0" stroke-linejoin="round" stroke="#ed4580"/><g transform="translate(6.687327242275264 9.792030544281006)"><clipPath id="id25"><path d="M0 0 L46.91244337667339 0 L46.91244337667339 41.63303947448721 L0 41.63303947448721z"/></clipPath><text font-size="14" clip-path="url(#id25)" text-decoration="none" fill="#ed4580" font-family="&apos;冬青黑體簡體中文 W3&apos;" font-style="normal" font-weight="bold"><tspan x="3.0" xml:space="preserve" y="25.816519737243606" textLength="41.0">模块 c</tspan></text></g></g><path fill="none" d="M124.09805918519882 266.10389436584256 L132.4375 200.5010000000001" stroke-width="2.0" stroke-linejoin="round" stroke="#ed4580"/><g transform="translate(518.5 144.00100000000012)"><path fill="#ffffff" fill-opacity="1.0" d="M61.49999999999995 30.749999999999975 Q61.49999999999995 43.48645689000001 52.493939999999895 52.49301749999997 Q43.48744949999998 61.49999999999995 30.749999999999975 61.49999999999995 Q18.013042499999994 61.49999999999995 9.006522848999998 52.493477519999985 Q0.0 43.486957500000024 0.0 30.749999999999975 Q0.0 18.013042499999994 9.006521619 9.006522848999998 Q18.013042499999994 0.0 30.749999999999975 0.0 Q43.48766720999991 0.0 52.493939999999895 9.006521619 Q61.49999999999995 18.01283093999998 61.49999999999995 30.749999999999975 L61.49999999999995 30.749999999999975z" stroke-width="2.0" stroke-linejoin="round" stroke="#ed4580"/><g transform="translate(6.687327242275264 9.792030544281006)"><clipPath id="id26"><path d="M0 0 L46.91244337667339 0 L46.91244337667339 41.63303947448721 L0 41.63303947448721z"/></clipPath><text font-size="14" clip-path="url(#id26)" text-decoration="none" fill="#ed4580" font-family="&apos;冬青黑體簡體中文 W3&apos;" font-style="normal" font-weight="bold"><tspan x="2.0" xml:space="preserve" y="25.816519737243606" textLength="42.0">模块 d</tspan></text></g></g><path fill="none" d="M478.74999999999994 194.5010000000001 L518.5 174.7510000000001" stroke-width="2.0" stroke-linejoin="round" stroke="#ed4580"/><g transform="translate(346.75 71.56200000000013)"><path fill="#ffffff" fill-opacity="1.0" d="M61.49999999999995 30.749999999999975 Q61.49999999999995 43.48645689000001 52.493939999999895 52.49301749999997 Q43.48744949999998 61.49999999999995 30.749999999999975 61.49999999999995 Q18.013042499999994 61.49999999999995 9.006522848999998 52.493477519999985 Q0.0 43.486957500000024 0.0 30.749999999999975 Q0.0 18.013042499999994 9.006521619 9.006522848999998 Q18.013042499999994 0.0 30.749999999999975 0.0 Q43.48766720999991 0.0 52.493939999999895 9.006521619 Q61.49999999999995 18.01283093999998 61.49999999999995 30.749999999999975 L61.49999999999995 30.749999999999975z" stroke-width="2.0" stroke-linejoin="round" stroke="#ed4580"/><g transform="translate(6.687327242275264 9.792030544281006)"><clipPath id="id27"><path d="M0 0 L46.91244337667339 0 L46.91244337667339 41.63303947448721 L0 41.63303947448721z"/></clipPath><text font-size="14" clip-path="url(#id27)" text-decoration="none" fill="#ed4580" font-family="&apos;冬青黑體簡體中文 W3&apos;" font-style="normal" font-weight="bold"><tspan x="3.0" xml:space="preserve" y="25.816519737243606" textLength="41.0">模块 e</tspan></text></g></g><g transform="translate(207.125 70.56200000000013)"><path fill="#ffffff" fill-opacity="1.0" d="M61.49999999999995 30.749999999999975 Q61.49999999999995 43.48645689000001 52.493939999999895 52.49301749999997 Q43.48744949999998 61.49999999999995 30.749999999999975 61.49999999999995 Q18.013042499999994 61.49999999999995 9.006522848999998 52.493477519999985 Q0.0 43.486957500000024 0.0 30.749999999999975 Q0.0 18.013042499999994 9.006521619 9.006522848999998 Q18.013042499999994 0.0 30.749999999999975 0.0 Q43.48766720999991 0.0 52.493939999999895 9.006521619 Q61.49999999999995 18.01283093999998 61.49999999999995 30.749999999999975 L61.49999999999995 30.749999999999975z" stroke-width="2.0" stroke-linejoin="round" stroke="#ed4580"/><g transform="translate(6.687327242275264 9.792030544281006)"><clipPath id="id28"><path d="M0 0 L46.91244337667339 0 L46.91244337667339 41.63303947448721 L0 41.63303947448721z"/></clipPath><text font-size="14" clip-path="url(#id28)" text-decoration="none" fill="#ed4580" font-family="&apos;冬青黑體簡體中文 W3&apos;" font-style="normal" font-weight="bold"><tspan x="4.0" xml:space="preserve" y="25.816519737243606" textLength="39.0">模块 f</tspan></text></g></g><g transform="translate(275.625 49.562000000000126)"><path fill="#ffffff" fill-opacity="1.0" d="M61.49999999999995 30.749999999999975 Q61.49999999999995 43.48645689000001 52.493939999999895 52.49301749999997 Q43.48744949999998 61.49999999999995 30.749999999999975 61.49999999999995 Q18.013042499999994 61.49999999999995 9.006522848999998 52.493477519999985 Q0.0 43.486957500000024 0.0 30.749999999999975 Q0.0 18.013042499999994 9.006521619 9.006522848999998 Q18.013042499999994 0.0 30.749999999999975 0.0 Q43.48766720999991 0.0 52.493939999999895 9.006521619 Q61.49999999999995 18.01283093999998 61.49999999999995 30.749999999999975 L61.49999999999995 30.749999999999975z" stroke-width="2.0" stroke-linejoin="round" stroke="#ed4580"/><g transform="translate(6.687327242275264 9.792030544281006)"><clipPath id="id29"><path d="M0 0 L46.91244337667339 0 L46.91244337667339 41.63303947448721 L0 41.63303947448721z"/></clipPath><text font-size="14" clip-path="url(#id29)" text-decoration="none" fill="#ed4580" font-family="&apos;冬青黑體簡體中文 W3&apos;" font-style="normal" font-weight="bold"><tspan x="3.0" xml:space="preserve" y="25.816519737243606" textLength="41.0">模块 c</tspan></text></g></g><path fill="none" d="M307.3125 147.69400000000013 L306.375 111.06200000000007" stroke-width="2.0" stroke-linejoin="round" stroke="#ed4580"/><path fill="none" d="M307.3125 147.69400000000013 L355.7564664785137 124.0555335214864" stroke-width="2.0" stroke-linejoin="round" stroke="#ed4580"/><path fill="none" d="M307.3125 147.69400000000013 L259.61853352148626 123.0555335214864" stroke-width="2.0" stroke-linejoin="round" stroke="#ed4580"/><g transform="translate(287.8125 133.06200000000013)"><path fill="url(#id30)" d="M6.07 40.689998 Q6.07 34.996596999999994 10.1137503 30.972873 Q14.157652 26.948997 19.880001 26.948997 Q25.60313 26.948997 29.651251000000002 30.973247 Q33.700001 34.998123 33.700001 40.689998 Q33.700001 43.377769 29.382813 44.958811999999995 Q25.497345 46.381747 19.885002 46.381747 Q14.272658 46.381747 10.387188 44.958811999999995 Q6.070001430511501 43.377769 6.070001430511501 40.689998 L6.07 40.689998z" stroke-width="1.0" stroke-linejoin="round" stroke="#9a4e74"/><path fill="#c46293" fill-opacity="1.0" d="M30.0 34.38 Q30.5625 35.4425 31.09375 36.72375 Q32.15625 39.28625 32.0 40.38 Q31.77404 41.96173 29.25 43.22375 Q26.256466 44.720519 22.0 44.38 Q23.082500500000002 44.214999000000006 24.4987507 43.757499 Q27.331249 42.842502 29.0 41.38 Q30.25 40.28625 30.25 37.22375 Q30.25 36.2667188 30.125 35.22765625 Q30.0625 34.708125 30.0 34.38 L30.0 34.38z" stroke="none"/><path fill="#9d4f77" fill-opacity="1.0" d="M16.39999962 34.38 L23.601 34.38 Q24.0 34.38 24.0 34.77899826 L24.0 35.9799985 Q24.0 36.3789967 23.601 36.3789967 L16.39999962 36.3789967 Q16.0 36.3789967 16.0 35.9799985 L16.0 34.77899826 Q16.0 34.38 16.39999962 34.38 L16.39999962 34.38z" stroke="none"/><path fill="#9d4f77" fill-opacity="1.0" d="M16.39999962 38.38 L23.601 38.38 Q24.0 38.38 24.0 38.77899826 L24.0 39.9799985 Q24.0 40.3789967 23.601 40.3789967 L16.39999962 40.3789967 Q16.0 40.3789967 16.0 39.9799985 L16.0 38.77899826 Q16.0 38.38 16.39999962 38.38 L16.39999962 38.38z" stroke="none"/><path fill="url(#id31)" d="M0.0 18.378999999999998 Q0.0 14.379 4.0 14.379 Q8.0 14.379 8.0 18.378999999999998 Q8.0 22.378999999999998 4.0 22.378999999999998 Q0.0 22.378999999999998 0.0 18.378999999999998 L0.0 18.378999999999998z" stroke-width="1.0" stroke-linejoin="round" stroke="#fabd6d"/><path fill="url(#id32)" d="M31.0 18.378999999999998 Q31.0 14.379 35.0 14.379 Q39.0 14.379 39.0 18.378999999999998 Q39.0 22.378999999999998 35.0 22.378999999999998 Q31.0 22.378999999999998 31.0 18.378999999999998 L31.0 18.378999999999998z" stroke-width="1.0" stroke-linejoin="round" stroke="#fabd6d"/><path fill="url(#id33)" d="M4.0 16.0690013 Q4.0 9.6331443 8.495000000000001 5.081501 Q12.990848 0.5290003 19.35 0.5290003 Q25.709154 0.5290003 30.205002 5.0815003 Q34.7 9.6331423 34.7 16.0690013 Q34.7 22.5049523 30.204998 27.0570003 Q25.70906 31.6100013 19.35 31.6100013 Q12.990942 31.6100013 8.495001 27.0570003 Q4.0 22.5049523 4.0 16.0690013 L4.0 16.0690013z" stroke-width="1.0" stroke-linejoin="round" stroke="#fabd6c"/><path fill="#fab35b" fill-opacity="1.0" d="M8.83 25.874 Q8.83 26.8612875 11.92375 28.749 Q15.4063893 30.874 18.58 30.874 Q22.6425 30.874 25.5175 29.124 Q26.955 28.249 27.58 27.374 Q27.314375 27.499 26.837812 27.6825938 Q25.884687999999997 28.049781199999998 24.83 28.34275 Q21.455 29.28025 18.33 29.124 Q14.082445 28.9148897 8.83 25.874 L8.83 25.874z" stroke="none"/><path fill="url(#id34)" d="M19.35 0.0 Q13.321996 0.0 8.813749999999999 4.13875 Q4.20823845 8.366794 4.09 14.36 Q4.338240949999999 14.313955 5.9818753 12.633281 Q8.067348299999999 10.50081 9.9475 9.096251 Q12.920850999999999 6.875021 16.211876 5.6960936 Q20.36502 4.2083344 25.0 4.38 Q25.328125 4.458125 25.889547 4.7268753 Q27.01239 5.264375 28.178875 6.2175 Q29.811952 7.551875 31.299015 9.526875 Q33.157844 11.995625 34.681 15.33 Q34.828617 9.06195 30.176374 4.49625 Q25.594896 0.0 19.35 0.0 L19.35 0.0z" stroke-width="1.0" stroke-linejoin="round" stroke="#000000"/><path fill="none" d="M9.1999998 12.38 L16.799999 12.38 Q18.0 12.38 18.0 13.579999800000001 L18.0 17.18 Q18.0 18.380001 16.799999 18.380001 L9.1999998 18.380001 Q8.0 18.380001 8.0 17.18 L8.0 13.579999800000001 Q8.0 12.38 9.1999998 12.38 L9.1999998 12.38z" stroke-width="1.0" stroke-linejoin="round" stroke="#333333"/><path fill="none" d="M22.2000008 12.38 L29.800001 12.38 Q31.000002000000002 12.38 31.000002000000002 13.579999800000001 L31.000002000000002 17.18 Q31.000002000000002 18.380001 29.800001 18.380001 L22.2000008 18.380001 Q21.0 18.380001 21.0 17.18 L21.0 13.579999800000001 Q21.0 12.38 22.2000008 12.38 L22.2000008 12.38z" stroke-width="1.0" stroke-linejoin="round" stroke="#333333"/><path fill="#333333" fill-opacity="1.0" d="M18.20000076 13.38 L20.8000011 13.38 Q21.000002 13.38 21.000002 13.57999981 Q21.000002 14.38 20.8000011 14.38 L18.20000076 14.38 Q18.0 14.38 18.0 14.1800002 Q18.0 13.38 18.20000076 13.38 L18.20000076 13.38z" stroke-width="1.0" stroke-linejoin="round" stroke="#333333"/><path fill="#333333" fill-opacity="1.0" d="M31.20000067 15.38 L34.7999991 15.38 Q35.0 15.38 35.0 15.57999981 Q35.0 16.380001 34.7999991 16.380001 L31.19999876 16.380001 Q30.999998 16.380001 30.999998 16.180000200000002 Q30.999998 15.38 31.19999876 15.38 L31.20000067 15.38z" stroke-width="1.0" stroke-linejoin="round" stroke="#333333"/><path fill="#333333" fill-opacity="1.0" d="M4.19999981 15.38 L7.7999992 15.38 Q7.999999 15.38 7.999999 15.57999981 Q7.999999 16.380001 7.7999992 16.380001 L4.19999981 16.380001 Q4.0 16.380001 4.0 16.180000200000002 Q4.0 15.38 4.19999981 15.38 L4.19999981 15.38z" stroke-width="1.0" stroke-linejoin="round" stroke="#333333"/></g><g transform="translate(497.75 207.74999999999994)"><path fill="#ffffff" fill-opacity="1.0" d="M61.49999999999995 30.749999999999975 Q61.49999999999995 43.48645689000001 52.493939999999895 52.49301749999997 Q43.48744949999998 61.49999999999995 30.749999999999975 61.49999999999995 Q18.013042499999994 61.49999999999995 9.006522848999998 52.493477519999985 Q0.0 43.486957500000024 0.0 30.749999999999975 Q0.0 18.013042499999994 9.006521619 9.006522848999998 Q18.013042499999994 0.0 30.749999999999975 0.0 Q43.48766720999991 0.0 52.493939999999895 9.006521619 Q61.49999999999995 18.01283093999998 61.49999999999995 30.749999999999975 L61.49999999999995 30.749999999999975z" stroke-width="2.0" stroke-linejoin="round" stroke="#ed4580"/><g transform="translate(6.687327242275264 9.792030544281006)"><clipPath id="id35"><path d="M0 0 L46.91244337667339 0 L46.91244337667339 41.63303947448721 L0 41.63303947448721z"/></clipPath><text font-size="14" clip-path="url(#id35)" text-decoration="none" fill="#ed4580" font-family="&apos;冬青黑體簡體中文 W3&apos;" font-style="normal" font-weight="bold"><tspan x="3.0" xml:space="preserve" y="25.816519737243606" textLength="41.0">模块 a</tspan></text></g></g><path fill="none" d="M478.74999999999994 194.5010000000001 L506.7564664785137 216.7564664785136" stroke-width="2.0" stroke-linejoin="round" stroke="#ed4580"/><path fill="none" stroke-linejoin="round" d="M343.25 423.62500000000006 L343.25 474.75" stroke="#51b11d" marker-start="url(#id36)" stroke-width="2.0" marker-end="url(#id37)"/><path fill="none" stroke-linejoin="round" d="M268.575 423.62500000000006 L268.575 474.75" stroke="#51b11d" marker-start="url(#id38)" stroke-width="2.0" marker-end="url(#id39)"/><g transform="translate(357.8125 441.0)"><clipPath id="id40"><path d="M0 0 L161.5 0 L161.5 20.0 L0 20.0z"/></clipPath><text font-size="16" clip-path="url(#id40)" text-decoration="none" fill="#51b11d" font-family="Arial,Arial" font-style="normal" font-weight="bold"><tspan x="2.0" xml:space="preserve" y="16.0" textLength="144.0">自动分散做并行下载</tspan></text><text font-size="16" clip-path="url(#id40)" text-decoration="none" fill="#51b11d" font-family="Arial,Arial" font-style="normal" font-weight="normal"/></g></g></svg>